<svg width="57" height="48" viewBox="0 0 57 48" fill="none" xmlns="http://www.w3.org/2000/svg">
<rect x="0.846191" width="55.3846" height="48" rx="24" fill="url(#paint0_linear_1_179)"/>
<path fill-rule="evenodd" clip-rule="evenodd" d="M18.1538 17C18.1538 15.8954 19.187 15 20.4615 15H36.6153C37.8899 15 38.923 15.8954 38.923 17V31C38.923 32.1046 37.8899 33 36.6153 33H20.4615C19.187 33 18.1538 32.1046 18.1538 31V17ZM20.4615 17H22.7692V18C22.7692 19.6568 24.319 21 26.2307 21H30.8461C32.7579 21 34.3077 19.6568 34.3077 18V17H36.6153V31H20.4615V17ZM25.0769 18V17H32V18C32 18.5523 31.4834 19 30.8461 19H26.2307C25.5935 19 25.0769 18.5523 25.0769 18ZM23.923 23C23.2858 23 22.7692 23.4477 22.7692 24C22.7692 24.5523 23.2858 25 23.923 25H33.1071C33.7443 25 34.2609 24.5523 34.2609 24C34.2609 23.4477 33.7443 23 33.1071 23H23.923ZM23.9698 27.0665C23.3325 27.0665 22.816 27.5142 22.816 28.0665C22.816 28.6188 23.3325 29.0665 23.9698 29.0665H33.1538C33.7911 29.0665 34.3077 28.6188 34.3077 28.0665C34.3077 27.5142 33.7911 27.0665 33.1538 27.0665H23.9698Z" fill="white"/>
<defs>
<linearGradient id="paint0_linear_1_179" x1="56.2308" y1="0" x2="8.71812" y2="54.8223" gradientUnits="userSpaceOnUse">
<stop stop-color="#BB65FF"/>
<stop offset="1" stop-color="#4C6FFF"/>
</linearGradient>
</defs>
</svg>
