<svg width="57" height="48" viewBox="0 0 57 48" fill="none" xmlns="http://www.w3.org/2000/svg">
<rect x="0.846191" width="55.3846" height="48" rx="24" fill="url(#paint0_linear_1_204)"/>
<path fill-rule="evenodd" clip-rule="evenodd" d="M36.6154 21C36.6154 23.3787 35.2464 25.4804 33.1539 26.7453V34H30.1702L28.5385 32.5858L26.9067 34H23.9231V26.7453C21.8306 25.4804 20.4615 23.3787 20.4615 21C20.4615 17.134 24.0777 14 28.5385 14C32.9992 14 36.6154 17.134 36.6154 21ZM34.3077 21C34.3077 23.7614 31.7247 26 28.5385 26C25.3522 26 22.7692 23.7614 22.7692 21C22.7692 18.2386 25.3522 16 28.5385 16C31.7247 16 34.3077 18.2386 34.3077 21ZM26.2308 31.7573L28.5385 29.7573L30.8462 31.7574V27.7101C30.115 27.8987 29.3404 28 28.5385 28C27.7365 28 26.962 27.8987 26.2308 27.7101V31.7573Z" fill="white"/>
<defs>
<linearGradient id="paint0_linear_1_204" x1="56.2308" y1="0" x2="8.71812" y2="54.8223" gradientUnits="userSpaceOnUse">
<stop stop-color="#FFA674"/>
<stop offset="1" stop-color="#FF3737"/>
</linearGradient>
</defs>
</svg>
