<svg width="171" height="67" viewBox="0 0 171 67" fill="none" xmlns="http://www.w3.org/2000/svg">
<rect width="171" height="67" rx="30" fill="#F8F8FB"/>
<path d="M38.666 33.718C38.666 32.494 38.948 31.396 39.512 30.424C40.088 29.452 40.862 28.696 41.834 28.156C42.818 27.604 43.892 27.328 45.056 27.328C46.388 27.328 47.57 27.658 48.602 28.318C49.646 28.966 50.402 29.89 50.87 31.09H48.404C48.08 30.43 47.63 29.938 47.054 29.614C46.478 29.29 45.812 29.128 45.056 29.128C44.228 29.128 43.49 29.314 42.842 29.686C42.194 30.058 41.684 30.592 41.312 31.288C40.952 31.984 40.772 32.794 40.772 33.718C40.772 34.642 40.952 35.452 41.312 36.148C41.684 36.844 42.194 37.384 42.842 37.768C43.49 38.14 44.228 38.326 45.056 38.326C45.812 38.326 46.478 38.164 47.054 37.84C47.63 37.516 48.08 37.024 48.404 36.364H50.87C50.402 37.564 49.646 38.488 48.602 39.136C47.57 39.784 46.388 40.108 45.056 40.108C43.88 40.108 42.806 39.838 41.834 39.298C40.862 38.746 40.088 37.984 39.512 37.012C38.948 36.04 38.666 34.942 38.666 33.718ZM57.5739 40.162C56.6379 40.162 55.7919 39.952 55.0359 39.532C54.2799 39.1 53.6859 38.5 53.2539 37.732C52.8219 36.952 52.6059 36.052 52.6059 35.032C52.6059 34.024 52.8279 33.13 53.2719 32.35C53.7159 31.57 54.3219 30.97 55.0899 30.55C55.8579 30.13 56.7159 29.92 57.6639 29.92C58.6119 29.92 59.4699 30.13 60.2379 30.55C61.0059 30.97 61.6119 31.57 62.0559 32.35C62.4999 33.13 62.7219 34.024 62.7219 35.032C62.7219 36.04 62.4939 36.934 62.0379 37.714C61.5819 38.494 60.9579 39.1 60.1659 39.532C59.3859 39.952 58.5219 40.162 57.5739 40.162ZM57.5739 38.38C58.1019 38.38 58.5939 38.254 59.0499 38.002C59.5179 37.75 59.8959 37.372 60.1839 36.868C60.4719 36.364 60.6159 35.752 60.6159 35.032C60.6159 34.312 60.4779 33.706 60.2019 33.214C59.9259 32.71 59.5599 32.332 59.1039 32.08C58.6479 31.828 58.1559 31.702 57.6279 31.702C57.0999 31.702 56.6079 31.828 56.1519 32.08C55.7079 32.332 55.3539 32.71 55.0899 33.214C54.8259 33.706 54.6939 34.312 54.6939 35.032C54.6939 36.1 54.9639 36.928 55.5039 37.516C56.0559 38.092 56.7459 38.38 57.5739 38.38ZM73.7324 30.082V40H71.6804V38.83C71.3564 39.238 70.9304 39.562 70.4024 39.802C69.8864 40.03 69.3344 40.144 68.7464 40.144C67.9664 40.144 67.2644 39.982 66.6404 39.658C66.0284 39.334 65.5424 38.854 65.1824 38.218C64.8344 37.582 64.6604 36.814 64.6604 35.914V30.082H66.6944V35.608C66.6944 36.496 66.9164 37.18 67.3604 37.66C67.8044 38.128 68.4104 38.362 69.1784 38.362C69.9464 38.362 70.5524 38.128 70.9964 37.66C71.4524 37.18 71.6804 36.496 71.6804 35.608V30.082H73.7324ZM78.4918 31.522C78.7918 31.018 79.1878 30.628 79.6798 30.352C80.1838 30.064 80.7778 29.92 81.4618 29.92V32.044H80.9398C80.1358 32.044 79.5238 32.248 79.1038 32.656C78.6958 33.064 78.4918 33.772 78.4918 34.78V40H76.4398V30.082H78.4918V31.522ZM86.948 40.162C86.168 40.162 85.466 40.024 84.842 39.748C84.23 39.46 83.744 39.076 83.384 38.596C83.024 38.104 82.832 37.558 82.808 36.958H84.932C84.968 37.378 85.166 37.732 85.526 38.02C85.898 38.296 86.36 38.434 86.912 38.434C87.488 38.434 87.932 38.326 88.244 38.11C88.568 37.882 88.73 37.594 88.73 37.246C88.73 36.874 88.55 36.598 88.19 36.418C87.842 36.238 87.284 36.04 86.516 35.824C85.772 35.62 85.166 35.422 84.698 35.23C84.23 35.038 83.822 34.744 83.474 34.348C83.138 33.952 82.97 33.43 82.97 32.782C82.97 32.254 83.126 31.774 83.438 31.342C83.75 30.898 84.194 30.55 84.77 30.298C85.358 30.046 86.03 29.92 86.786 29.92C87.914 29.92 88.82 30.208 89.504 30.784C90.2 31.348 90.572 32.122 90.62 33.106H88.568C88.532 32.662 88.352 32.308 88.028 32.044C87.704 31.78 87.266 31.648 86.714 31.648C86.174 31.648 85.76 31.75 85.472 31.954C85.184 32.158 85.04 32.428 85.04 32.764C85.04 33.028 85.136 33.25 85.328 33.43C85.52 33.61 85.754 33.754 86.03 33.862C86.306 33.958 86.714 34.084 87.254 34.24C87.974 34.432 88.562 34.63 89.018 34.834C89.486 35.026 89.888 35.314 90.224 35.698C90.56 36.082 90.734 36.592 90.746 37.228C90.746 37.792 90.59 38.296 90.278 38.74C89.966 39.184 89.522 39.532 88.946 39.784C88.382 40.036 87.716 40.162 86.948 40.162ZM102.053 34.798C102.053 35.17 102.029 35.506 101.981 35.806H94.4033C94.4633 36.598 94.7573 37.234 95.2853 37.714C95.8133 38.194 96.4613 38.434 97.2293 38.434C98.3333 38.434 99.1133 37.972 99.5693 37.048H101.783C101.483 37.96 100.937 38.71 100.145 39.298C99.3653 39.874 98.3933 40.162 97.2293 40.162C96.2813 40.162 95.4293 39.952 94.6733 39.532C93.9293 39.1 93.3413 38.5 92.9093 37.732C92.4893 36.952 92.2793 36.052 92.2793 35.032C92.2793 34.012 92.4833 33.118 92.8913 32.35C93.3113 31.57 93.8933 30.97 94.6373 30.55C95.3933 30.13 96.2573 29.92 97.2293 29.92C98.1653 29.92 98.9993 30.124 99.7313 30.532C100.463 30.94 101.033 31.516 101.441 32.26C101.849 32.992 102.053 33.838 102.053 34.798ZM99.9113 34.15C99.8993 33.394 99.6293 32.788 99.1013 32.332C98.5733 31.876 97.9193 31.648 97.1393 31.648C96.4313 31.648 95.8253 31.876 95.3213 32.332C94.8173 32.776 94.5173 33.382 94.4213 34.15H99.9113ZM114.063 27.49V40H112.011V34.528H106.125V40H104.073V27.49H106.125V32.854H112.011V27.49H114.063ZM125.746 30.082V40H123.694V38.83C123.37 39.238 122.944 39.562 122.416 39.802C121.9 40.03 121.348 40.144 120.76 40.144C119.98 40.144 119.278 39.982 118.654 39.658C118.042 39.334 117.556 38.854 117.196 38.218C116.848 37.582 116.674 36.814 116.674 35.914V30.082H118.708V35.608C118.708 36.496 118.93 37.18 119.374 37.66C119.818 38.128 120.424 38.362 121.192 38.362C121.96 38.362 122.566 38.128 123.01 37.66C123.466 37.18 123.694 36.496 123.694 35.608V30.082H125.746ZM130.506 31.558C130.854 31.078 131.328 30.688 131.928 30.388C132.54 30.076 133.218 29.92 133.962 29.92C134.838 29.92 135.63 30.13 136.338 30.55C137.046 30.97 137.604 31.57 138.012 32.35C138.42 33.118 138.624 34 138.624 34.996C138.624 35.992 138.42 36.886 138.012 37.678C137.604 38.458 137.04 39.07 136.32 39.514C135.612 39.946 134.826 40.162 133.962 40.162C133.194 40.162 132.51 40.012 131.91 39.712C131.322 39.412 130.854 39.028 130.506 38.56V40H128.454V26.68H130.506V31.558ZM136.536 34.996C136.536 34.312 136.392 33.724 136.104 33.232C135.828 32.728 135.456 32.35 134.988 32.098C134.532 31.834 134.04 31.702 133.512 31.702C132.996 31.702 132.504 31.834 132.036 32.098C131.58 32.362 131.208 32.746 130.92 33.25C130.644 33.754 130.506 34.348 130.506 35.032C130.506 35.716 130.644 36.316 130.92 36.832C131.208 37.336 131.58 37.72 132.036 37.984C132.504 38.248 132.996 38.38 133.512 38.38C134.04 38.38 134.532 38.248 134.988 37.984C135.456 37.708 135.828 37.312 136.104 36.796C136.392 36.28 136.536 35.68 136.536 34.996Z" fill="url(#paint0_linear_0_1)" fill-opacity="0.62"/>
<defs>
<linearGradient id="paint0_linear_0_1" x1="89" y1="20" x2="89" y2="47" gradientUnits="userSpaceOnUse">
<stop stop-color="#00A7B1"/>
<stop offset="1" stop-opacity="0"/>
</linearGradient>
</defs>
</svg>
